<?xml version="1.0" standalone="no"?>
<!DOCTYPE svg PUBLIC "-//W3C//DTD SVG 20010904//EN"
 "http://www.w3.org/TR/2001/REC-SVG-20010904/DTD/svg10.dtd">
<svg version="1.0" xmlns="http://www.w3.org/2000/svg"
 width="675.000000pt" height="850.000000pt" viewBox="0 0 675.000000 850.000000"
 preserveAspectRatio="xMidYMid meet">
<metadata>
Created by potrace 1.16, written by Peter Selinger 2001-2019
</metadata>
<g transform="translate(0.000000,850.000000) scale(0.100000,-0.100000)"
fill="#000000" stroke="none">
<path d="M50 4245 l0 -4225 3330 0 3330 0 0 4225 0 4225 -3330 0 -3330 0 0
-4225z m860 718 l0 -3408 -121 -85 c-141 -98 -209 -156 -209 -176 0 -8 4 -14
9 -14 5 0 76 -9 157 -20 82 -11 152 -20 157 -20 4 0 7 -259 7 -575 l0 -575
-380 0 -380 0 0 4140 0 4140 380 0 380 0 0 -3407z m5730 -733 l0 -4140 -2830
0 -2830 0 0 575 0 575 58 0 c31 0 231 -9 444 -20 l386 -20 388 110 c569 163
2588 759 3867 1142 l339 102 -6 38 c-6 39 -148 541 -205 726 l-32 103 -32 -6
c-18 -4 -102 -27 -187 -52 -85 -25 -162 -47 -171 -50 -17 -5 -19 0 -84 224
-45 154 -77 233 -95 233 -35 0 -656 -167 -878 -236 l-114 -35 7 -37 c10 -56
63 -215 77 -235 18 -24 78 -13 370 67 353 96 329 91 350 64 19 -24 55 -125 47
-132 -7 -7 -926 -279 -3372 -1000 l-527 -155 -288 -209 c-158 -115 -299 -216
-314 -226 l-28 -18 0 3376 0 3376 2830 0 2830 0 0 -4140z m-472 -922 c20 -24
180 -565 196 -665 l7 -41 -128 -40 c-855 -268 -4261 -1252 -4334 -1252 -11 0
-24 22 -42 73 -55 151 -194 623 -186 631 5 5 766 230 1674 496 971 284 2159
635 2394 707 346 105 398 116 419 91z m-4537 -1449 c26 -64 169 -538 169 -561
0 -25 -970 12 -1013 39 -21 13 125 138 388 330 239 175 406 286 417 275 5 -5
23 -42 39 -83z"/>
<path d="M1830 6740 l0 -270 1920 0 1920 0 0 270 0 270 -1920 0 -1920 0 0
-270z"/>
<path d="M1830 5730 l0 -270 1920 0 1920 0 0 270 0 270 -1920 0 -1920 0 0
-270z"/>
<path d="M1830 4675 l0 -285 1920 0 1920 0 0 285 0 285 -1920 0 -1920 0 0
-285z"/>
</g>
</svg>
